<?xml version="1.0" encoding="UTF-8" standalone="no"?>
<!-- Created with Inkscape (http://www.inkscape.org/) -->
<svg
   xmlns:dc="http://purl.org/dc/elements/1.1/"
   xmlns:cc="http://web.resource.org/cc/"
   xmlns:rdf="http://www.w3.org/1999/02/22-rdf-syntax-ns#"
   xmlns:svg="http://www.w3.org/2000/svg"
   xmlns="http://www.w3.org/2000/svg"
   xmlns:xlink="http://www.w3.org/1999/xlink"
   xmlns:sodipodi="http://sodipodi.sourceforge.net/DTD/sodipodi-0.dtd"
   xmlns:inkscape="http://www.inkscape.org/namespaces/inkscape"
   width="1024"
   height="768"
   id="svg2"
   sodipodi:version="0.32"
   inkscape:version="0.45"
   version="1.0"
   sodipodi:docbase="/home/aitor"
   sodipodi:docname="knut.svg"
   inkscape:output_extension="org.inkscape.output.svg.inkscape"
   sodipodi:modified="true">
  <defs
     id="defs4">
    <linearGradient
       id="linearGradient5790">
      <stop
         style="stop-color:#ababab;stop-opacity:0"
         offset="0"
         id="stop5792" />
      <stop
         style="stop-color:#e6e6e6;stop-opacity:0;"
         offset="1"
         id="stop5794" />
    </linearGradient>
    <linearGradient
       id="linearGradient5735">
      <stop
         id="stop5737"
         offset="0"
         style="stop-color:#ababab;stop-opacity:1;" />
      <stop
         id="stop5739"
         offset="1"
         style="stop-color:#e6e6e6;stop-opacity:0;" />
    </linearGradient>
    <linearGradient
       inkscape:collect="always"
       id="linearGradient5687">
      <stop
         style="stop-color:#e6e6e6;stop-opacity:1;"
         offset="0"
         id="stop5689" />
      <stop
         style="stop-color:#e6e6e6;stop-opacity:0;"
         offset="1"
         id="stop5691" />
    </linearGradient>
    <radialGradient
       inkscape:collect="always"
       xlink:href="#linearGradient5735"
       id="radialGradient5861"
       gradientUnits="userSpaceOnUse"
       gradientTransform="matrix(-7.1889766,-35.988855,-23.349636,4.6641018,15112.728,7264.4907)"
       cx="256.34464"
       cy="535.94983"
       fx="256.34464"
       fy="535.94983"
       r="20.848297" />
    <radialGradient
       inkscape:collect="always"
       xlink:href="#linearGradient5735"
       id="radialGradient5864"
       gradientUnits="userSpaceOnUse"
       gradientTransform="matrix(-7.4761559,10.742025,-10.193979,-7.0941209,7274.4926,1688.6007)"
       cx="212.69598"
       cy="516.64227"
       fx="212.69598"
       fy="516.64227"
       r="10.784442" />
    <radialGradient
       inkscape:collect="always"
       xlink:href="#linearGradient5687"
       id="radialGradient5869"
       gradientUnits="userSpaceOnUse"
       gradientTransform="matrix(-7.0653024,6.4810793,-6.3979789,-6.9747422,5220.6998,2219.4246)"
       cx="228.23366"
       cy="498.19742"
       fx="228.23366"
       fy="498.19742"
       r="11.736668" />
    <radialGradient
       inkscape:collect="always"
       xlink:href="#linearGradient5735"
       id="radialGradient5877"
       gradientUnits="userSpaceOnUse"
       gradientTransform="matrix(7.1656756,6.7199693,5.8282679,-6.2148255,-4316.3011,2075.5335)"
       cx="226.90744"
       cy="533.5448"
       fx="226.90744"
       fy="533.5448"
       r="20.848297" />
    <radialGradient
       inkscape:collect="always"
       xlink:href="#linearGradient5735"
       id="radialGradient5880"
       gradientUnits="userSpaceOnUse"
       gradientTransform="matrix(2.1145749,13.381185,-14.990506,2.3688923,6836.9827,-3047.8532)"
       cx="150.62796"
       cy="464.86472"
       fx="150.62796"
       fy="464.86472"
       r="27.629852" />
    <radialGradient
       inkscape:collect="always"
       xlink:href="#linearGradient5687"
       id="radialGradient5890"
       cx="255.41975"
       cy="476.38657"
       fx="255.41975"
       fy="476.38657"
       r="5.6957831"
       gradientUnits="userSpaceOnUse"
       gradientTransform="matrix(-1.7881478,1.894167,-1.3055019,-2.1753959,1334.0716,1028.9083)" />
    <radialGradient
       inkscape:collect="always"
       xlink:href="#linearGradient5687"
       id="radialGradient5896"
       cx="252.68047"
       cy="477.41733"
       fx="252.68047"
       fy="477.41733"
       r="5.6957831"
       gradientUnits="userSpaceOnUse"
       gradientTransform="matrix(-1.4099458,2.017561,-1.8416529,-2.2717398,1489.1059,1049.5308)" />
    <radialGradient
       inkscape:collect="always"
       xlink:href="#linearGradient5735"
       id="radialGradient5939"
       gradientUnits="userSpaceOnUse"
       gradientTransform="matrix(2.1145749,13.381185,-14.990506,2.3688923,6836.9827,-3047.8532)"
       cx="150.62796"
       cy="464.86472"
       fx="150.62796"
       fy="464.86472"
       r="27.629852" />
    <radialGradient
       inkscape:collect="always"
       xlink:href="#linearGradient5735"
       id="radialGradient5941"
       gradientUnits="userSpaceOnUse"
       gradientTransform="matrix(7.1656756,6.7199693,5.8282679,-6.2148255,-4316.3011,2075.5335)"
       cx="226.90744"
       cy="533.5448"
       fx="226.90744"
       fy="533.5448"
       r="20.848297" />
    <radialGradient
       inkscape:collect="always"
       xlink:href="#linearGradient5687"
       id="radialGradient5943"
       gradientUnits="userSpaceOnUse"
       gradientTransform="matrix(-7.0653024,6.4810793,-6.3979789,-6.9747422,5220.6998,2219.4246)"
       cx="228.23366"
       cy="498.19742"
       fx="228.23366"
       fy="498.19742"
       r="11.736668" />
    <radialGradient
       inkscape:collect="always"
       xlink:href="#linearGradient5735"
       id="radialGradient5945"
       gradientUnits="userSpaceOnUse"
       gradientTransform="matrix(-7.4761559,10.742025,-10.193979,-7.0941209,7274.4926,1688.6007)"
       cx="212.69598"
       cy="516.64227"
       fx="212.69598"
       fy="516.64227"
       r="10.784442" />
    <radialGradient
       inkscape:collect="always"
       xlink:href="#linearGradient5735"
       id="radialGradient5947"
       gradientUnits="userSpaceOnUse"
       gradientTransform="matrix(-7.1889766,-35.988855,-23.349636,4.6641018,15112.728,7264.4907)"
       cx="256.34464"
       cy="535.94983"
       fx="256.34464"
       fy="535.94983"
       r="20.848297" />
    <radialGradient
       inkscape:collect="always"
       xlink:href="#linearGradient5687"
       id="radialGradient5949"
       gradientUnits="userSpaceOnUse"
       gradientTransform="matrix(-1.7881478,1.894167,-1.3055019,-2.1753959,1334.0716,1028.9083)"
       cx="255.41975"
       cy="476.38657"
       fx="255.41975"
       fy="476.38657"
       r="5.6957831" />
    <radialGradient
       inkscape:collect="always"
       xlink:href="#linearGradient5687"
       id="radialGradient5951"
       gradientUnits="userSpaceOnUse"
       gradientTransform="matrix(-1.4099458,2.017561,-1.8416529,-2.2717398,1489.1059,1049.5308)"
       cx="252.68047"
       cy="477.41733"
       fx="252.68047"
       fy="477.41733"
       r="5.6957831" />
  </defs>
  <sodipodi:namedview
     id="base"
     pagecolor="#ffffff"
     bordercolor="#666666"
     borderopacity="1.0"
     inkscape:pageopacity="0.0"
     inkscape:pageshadow="2"
     inkscape:zoom="0.70710678"
     inkscape:cx="466.63506"
     inkscape:cy="466.45543"
     inkscape:document-units="px"
     inkscape:current-layer="layer2"
     showguides="true"
     inkscape:guide-bbox="true"
     width="1024px"
     height="768px"
     inkscape:window-width="1142"
     inkscape:window-height="786"
     inkscape:window-x="0"
     inkscape:window-y="25" />
  <metadata
     id="metadata7">
    <rdf:RDF>
      <cc:Work
         rdf:about="">
        <dc:format>image/svg+xml</dc:format>
        <dc:type
           rdf:resource="http://purl.org/dc/dcmitype/StillImage" />
      </cc:Work>
    </rdf:RDF>
  </metadata>
  <g
     inkscape:label="Capa 1"
     inkscape:groupmode="layer"
     id="layer1"
     style="display:inline" />
  <g
     inkscape:groupmode="layer"
     id="layer2"
     inkscape:label="capa 2"
     style="display:inline">
    <g
       id="g5916"
       transform="matrix(0.8808336,0,0,0.8808336,32.993682,-1.5294393)">
      <path
         id="path5821"
         d="M 21.537167,628.96702 C 21.537167,628.96702 16.799392,605.62792 26.195087,586.42409 C 35.590785,567.22029 64.21405,556.12083 64.21405,556.12083 L 21.537167,628.96702 z "
         style="fill:#f2ede7;fill-opacity:1;fill-rule:evenodd;stroke:#ffffff;stroke-width:2.67773533px;stroke-linecap:butt;stroke-linejoin:miter;stroke-opacity:1;display:inline" />
      <path
         sodipodi:nodetypes="ccssssssssssscsssscssssssscscscscssssscscscsscssssssscsccscscssssscsc"
         id="path2703"
         d="M 583.98063,203.65262 C 583.98063,203.65262 566.22795,78.310069 319.29227,133.51582 C 319.29227,133.51582 312.86976,135.85135 309.92636,135.7972 C 306.98292,135.74306 304.13879,130.29264 283.58902,126.97022 C 263.03926,123.64777 244.13593,137.53137 241.07519,143.85461 C 238.01447,150.17786 237.50911,177.64975 249.04813,190.62115 C 260.58717,203.59251 261.47807,208.51625 260.84313,216.35635 C 260.20815,224.19642 256.95793,240.82164 259.7389,249.70603 C 262.51989,258.59041 264.09086,253.22123 268.57241,276.36823 C 273.05397,299.51523 272.68398,319.62858 274.02934,326.52361 C 275.3747,333.41866 274.71269,342.73046 265.99399,363.18096 C 257.27529,383.63146 250.80766,388.41983 249.57384,402.13772 C 248.34002,415.8556 251.25637,417.38145 247.20546,424.17723 C 243.15457,430.97302 180.91296,479.88305 180.91296,479.88305 C 180.91296,479.88305 204.87867,484.24979 217.97963,492.34256 C 231.08061,500.43531 258.11032,524.97857 269.36633,526.65782 C 280.62237,528.33708 341.24212,514.23943 351.62531,510.0138 C 362.00847,505.7882 362.10773,500.39192 369.92978,502.00801 C 377.7518,503.62413 375.56394,515.85226 375.56394,515.85226 C 375.56394,515.85226 356.28734,523.34941 337.19451,547.53495 C 318.10165,571.72052 288.1802,597.66979 279.1424,608.79046 C 270.10458,619.91111 255.35469,648.10245 257.75339,651.09097 C 260.15209,654.0795 268.58201,649.32722 272.62387,643.02201 C 276.66573,636.71681 283.25971,625.06046 285.26712,622.64371 C 287.2745,620.22696 292.27046,615.41151 278.08329,639.68729 C 263.89615,663.96307 246.98216,676.41106 254.72299,682.44229 C 262.4638,688.47351 287.66907,652.132 287.66907,652.132 C 287.66907,652.132 254.56056,691.27253 264.74518,697.83943 C 274.92984,704.40636 302.71429,661.24202 302.71429,661.24202 C 302.71429,661.24202 269.16032,697.92065 275.37528,706.86823 C 281.59023,715.81578 298.06781,700.41536 298.06781,700.41536 C 298.06781,700.41536 285.14154,709.50156 290.48367,712.54423 C 295.82577,715.58692 313.64872,707.08153 313.64872,707.08153 C 313.64872,707.08153 304.19253,714.26861 308.59861,714.84041 C 313.00472,715.41218 328.173,691.15445 348.46684,681.71306 C 368.76065,672.27167 413.16458,659.34789 431.16798,641.03114 C 449.1714,622.71438 480.9288,603.66917 486.96905,595.43778 C 493.0093,587.20638 497.73123,570.60824 501.70992,567.73703 C 505.68864,564.86579 548.52157,557.31121 548.52157,557.31121 C 548.52157,557.31121 557.01467,549.12495 562.99174,544.32754 C 568.96879,539.53014 578.87042,534.80493 578.87042,534.80493 C 578.87042,534.80493 581.37741,531.90665 576.01726,529.8451 C 570.6571,527.78357 570.6571,527.78357 570.6571,527.78357 C 570.6571,527.78357 576.88109,536.24054 587.89922,524.17484 C 598.91735,512.10915 584.20027,511.83842 596.61791,503.72434 C 609.03555,495.61029 607.20863,488.21563 607.20863,488.21563 C 607.20863,488.21563 635.34254,479.40921 655.46491,479.28862 C 675.58726,479.16805 686.29857,483.78172 697.11817,482.50852 C 707.93777,481.23535 710.98947,475.40266 725.22501,475.17381 C 739.46055,474.94495 751.64356,479.58566 759.06527,476.28703 C 766.48697,472.98841 778.18517,450.62979 785.13437,446.341 C 792.08356,442.05223 815.23056,437.57067 830.81147,444.23684 C 846.39237,450.90301 881.00044,490.30773 884.35322,494.78603 C 887.70596,499.2643 892.46726,507.20367 892.46726,507.20367 C 892.46726,507.20367 907.72907,504.53999 917.44119,510.11675 C 927.1533,515.69348 936.24852,528.12917 936.24852,528.12917 L 998.7313,519.46386 C 998.7313,519.46386 1001.2293,517.05614 1017.692,529.13663 C 1034.1548,541.21712 1021.9931,562.09501 1021.9931,562.09501 C 1021.9931,562.09501 1035.049,572.64063 1034.3509,583.91469 C 1033.6527,595.18875 1030.1949,623.09706 1030.1949,623.09706 C 1030.1949,623.09706 1083.9763,553.91123 1085.0116,550.98588 C 1086.0469,548.06052 1101.4588,510.55739 1056.3954,479.30285 C 1011.3319,448.0483 952.43329,421.93736 913.24188,418.27199 C 874.05049,414.60665 902.36488,395.98882 812.21995,334.46088 C 722.07502,272.93291 633.49854,259.52589 599.67633,257.43149 C 565.85415,255.33712 570.2512,256.39948 570.2512,256.39948 C 570.2512,256.39948 586.82802,235.60281 587.52616,224.32872 C 588.22428,213.05466 583.98063,203.65262 583.98063,203.65262 z "
         style="fill:#f2f2f2;fill-rule:evenodd;stroke:#ffffff;stroke-width:2.67773533px;stroke-linecap:butt;stroke-linejoin:miter;stroke-opacity:1" />
      <path
         id="path5754"
         d="M 262.64598,134.78611 C 283.31214,135.16627 311.00388,150.26847 311.00388,150.26847 C 311.00388,150.26847 298.37769,175.57362 299.19084,197.47782 C 300.00397,219.38198 316.62063,241.57689 327.51684,244.20947 C 338.41301,246.84202 343.67815,225.04967 355.90181,221.62633 C 368.12545,218.20298 385.14464,218.51606 388.65746,225.87708 C 392.17025,233.2381 378.35078,257.30524 362.52488,258.2302 C 346.69897,259.15514 344.46894,248.16951 332.17819,255.23982 C 319.88744,262.31013 303.63667,286.33254 293.93378,284.938 C 284.23089,283.54345 276.10144,262.72073 272.76755,245.63445 C 269.43366,228.54818 274.45283,220.12804 269.81382,207.88202 C 265.17483,195.63602 244.70993,184.31493 245.13482,161.21745 C 245.5597,138.12 265.05491,136.04648 262.64598,134.78611 z "
         style="fill:url(#radialGradient5939);fill-rule:evenodd;stroke:none;stroke-width:1px;stroke-linecap:butt;stroke-linejoin:miter;stroke-opacity:1;display:inline" />
      <path
         id="path5743"
         d="M 465.12402,113.14221 C 448.07295,113.1584 431.4707,118.39856 435.35742,134.35493 C 489.8607,146.30216 486.82667,177.83215 485.36504,191.18201 C 483.9034,204.53187 458.22942,212.55017 458.90837,241.7483 C 459.58734,270.94643 496.30631,258.24423 497.43248,263.12923 C 498.55868,268.01423 458.11006,286.73556 463.96475,299.0039 C 464.67557,300.49338 465.5975,302.48668 466.62104,304.74391 C 463.01452,302.77097 458.55564,301.85011 454.10458,298.15297 C 446.27485,291.64942 442.80704,266.18157 436.63974,255.73392 C 430.26775,256.41165 424.26526,277.72642 414.77306,275.16701 C 405.28089,272.60758 401.59481,259.02282 398.41613,258.96438 C 395.23744,258.9059 394.61751,292.33139 370.64587,299.04483 C 354.49842,310.51229 371.9597,346.52807 391.12839,350.30719 L 455.62437,347.47633 C 455.62437,347.47633 469.69179,330.63064 472.63582,318.99874 C 479.5452,336.16694 486.80142,358.15165 483.35569,368.65872 C 478.20237,384.37279 446.21255,402.00857 444.72856,416.57402 C 443.24456,431.13953 462.13119,463.14646 475.23507,477.98029 C 488.33894,492.81415 543.81096,519.3794 544.71356,536.42096 C 545.61616,553.46251 505.66856,541.76294 499.52322,545.2981 C 493.37784,548.83325 470.68756,592.20166 459.56779,601.72569 C 448.44796,611.24968 428.07244,593.84989 409.7034,600.80841 C 391.33436,607.76691 401.70914,639.61309 380.97589,642.87989 C 360.24262,646.14673 360.12954,653.43516 350.18069,665.41278 C 344.02007,672.82966 330.65782,690.45308 319.57044,705.18991 C 326.78708,697.48866 336.72871,687.15829 348.45827,681.70131 C 368.75208,672.25992 413.13866,659.35759 431.14206,641.04084 C 449.14549,622.72403 480.92702,603.68193 486.96726,595.45054 C 493.00751,587.2191 497.72568,570.63926 501.70437,567.76805 C 505.68309,564.89676 548.51359,557.33051 548.51359,557.33051 C 548.51361,557.33051 557.00428,549.0868 562.98136,544.2894 C 568.95838,539.49203 578.89046,534.78993 578.89046,534.78993 C 578.89046,534.78993 580.85453,532.52946 577.62877,530.58205 C 580.33682,530.30119 583.74203,528.68337 587.87383,524.15874 C 598.89199,512.09299 584.2013,511.84511 596.61894,503.73103 C 609.03658,495.61701 607.19909,488.1913 607.19909,488.1913 C 607.19912,488.19127 635.3642,479.40803 655.48658,479.28744 C 675.60895,479.16682 686.28755,483.75337 697.10715,482.48017 C 707.92678,481.20703 710.95888,475.44222 725.19442,475.21336 C 739.42999,474.98443 751.64937,479.55363 759.07108,476.255 C 762.63432,474.67127 767.17616,468.68853 771.71207,462.42705 C 774.00701,453.32333 775.27966,444.93707 773.88766,439.70247 C 769.33809,422.59383 692.77216,351.84461 653.0804,328.00923 C 613.38865,304.17379 573.74503,280.32178 570.2099,274.17643 C 566.67474,268.03105 568.16378,253.4665 568.16376,253.46652 L 583.11757,236.75185 C 583.42617,236.1612 583.78358,235.60016 584.07021,235.01181 L 579.62044,222.12487 L 586.73547,212.96578 C 586.59655,212.24084 586.50871,211.60873 586.35408,210.95013 L 583.67932,206.21409 L 582.38224,203.93051 C 582.38224,203.93051 583.10093,202.42231 583.33949,201.93948 C 585.88366,196.78441 600.19186,167.16763 601.65085,148.29409 C 601.89437,145.14377 601.55756,142.4475 600.71403,140.07491 C 600.68453,140.01866 600.66268,139.96191 600.63344,139.90604 C 600.08316,138.85471 599.49515,137.70347 599.01708,136.77965 C 598.91374,136.57994 598.7924,136.46557 598.69166,136.2715 C 598.62245,136.17261 598.60178,136.03095 598.53048,135.93376 C 592.73791,128.03678 580.04814,125.75416 568.59112,125.59089 C 566.29973,125.55825 564.10716,125.60747 561.97697,125.7203 C 551.15803,126.29333 542.71877,133.71535 537.96214,139.08795 C 537.67037,139.41752 537.4556,139.68264 537.19223,139.99441 C 534.9582,142.63191 533.6758,144.61653 533.67577,144.61656 C 533.67577,144.61656 531.91526,143.15512 530.1305,141.70577 C 522.63343,135.62712 502.38715,120.01566 486.75172,115.79978 C 480.70138,114.1684 472.87451,113.13486 465.12402,113.14221 z M 570.65015,527.77549 C 570.65015,527.77549 570.69129,527.82196 576.05145,529.88349 C 576.65321,530.11492 577.12698,530.33326 577.54511,530.58051 C 573.08558,530.9993 570.65016,527.77546 570.65015,527.77549 z "
         style="fill:url(#radialGradient5941);fill-rule:evenodd;stroke:none;stroke-width:1px;stroke-linecap:butt;stroke-linejoin:miter;stroke-opacity:1;display:inline" />
      <path
         id="path2705"
         d="M 568.91161,222.5141 C 568.91161,222.5141 594.93559,195.02091 597.02419,188.18903 C 599.11282,181.35718 610.33851,158.00837 601.79701,142.14771 C 593.25555,126.28706 594.77237,123.86128 570.30708,119.97611 C 545.84179,116.09091 527.32074,135.87034 527.32074,135.87034"
         style="fill:#f2f2f2;fill-opacity:1;fill-rule:evenodd;stroke:#ffffff;stroke-width:2.67773533px;stroke-linecap:butt;stroke-linejoin:miter;stroke-opacity:1" />
      <path
         sodipodi:nodetypes="cssc"
         id="path2697"
         d="M 308.2602,146.4924 C 308.2602,146.4924 324.50869,117.3275 365.91846,109.24759 C 407.32823,101.16764 429.42491,101.57412 469.11769,106.72514 C 508.81045,111.87613 535.75394,142.32768 535.75394,142.32768"
         style="fill:#f2f2f2;fill-opacity:1;fill-rule:evenodd;stroke:#ffffff;stroke-width:2.67773533px;stroke-linecap:butt;stroke-linejoin:miter;stroke-opacity:1" />
      <path
         sodipodi:nodetypes="csscccss"
         id="path2707"
         d="M 382.03003,351.08415 C 382.20324,353.47679 407.50293,353.54991 420.7573,353.30301 C 434.0117,353.05607 456.61462,351.47468 459.13064,348.08581 C 461.64665,344.69695 423.32809,346.93649 423.32809,346.93649 L 421.81603,334.83428 L 419.12687,347.63527 C 419.12687,347.63527 410.16243,346.70571 398.87931,346.49816 C 387.59623,346.2906 381.81195,348.07151 382.03003,351.08415 z "
         style="fill:#000000;fill-rule:evenodd;stroke:#000000;stroke-width:2.67773533px;stroke-linecap:butt;stroke-linejoin:miter;stroke-opacity:1" />
      <path
         id="path2709"
         d="M 422.74978,298.34306 C 436.99435,297.62362 451.01331,309.1684 450.4776,311.61223 C 449.94192,314.05605 447.17323,331.18085 433.4012,332.89046 C 419.62915,334.60007 404.42152,334.32032 400.0515,331.78625 C 395.68149,329.25219 387.61256,314.3817 387.67573,310.94772 C 387.7389,307.51373 403.6266,297.50053 422.74978,298.34306 z "
         style="fill:#1a1a1a;fill-rule:evenodd;stroke:#1a1a1a;stroke-width:2.67773533px;stroke-linecap:butt;stroke-linejoin:miter;stroke-opacity:1" />
      <path
         sodipodi:nodetypes="ccsscscccc"
         id="path2737"
         d="M 412.30849,180.44105 C 427.07526,170.98414 462.67023,168.86732 462.67023,168.86732 C 462.67023,168.86732 432.12228,176.81784 424.64945,186.40892 C 417.17661,196 415.33479,230.01602 421.34599,233.7748 C 427.35719,237.53358 434.56168,242.53039 434.56168,242.53039 C 434.56168,242.53039 424.90351,238.7045 417.60957,238.57033 C 410.31564,238.43615 399.19441,242.664 399.19441,242.664 C 417.39068,231.59251 418.76374,196.00954 390.67815,182.13581 C 373.74841,176.96009 356.70686,177.86269 356.70686,177.86269 C 356.70686,177.86269 394.29728,167.94904 412.30849,180.44105 z "
         style="fill:#cccccc;fill-opacity:0.42718446;fill-rule:evenodd;stroke:none;stroke-width:1px;stroke-linecap:butt;stroke-linejoin:miter;stroke-opacity:1;display:inline" />
      <path
         sodipodi:nodetypes="cscsscccsc"
         id="path4705"
         d="M 422.71633,298.32881 C 403.59314,297.48628 387.73166,307.47371 387.66849,310.90765 C 387.63504,312.72598 389.95832,317.76472 392.72854,322.46673 C 393.20464,322.48874 393.48233,322.43654 393.48614,322.22958 C 393.48617,322.22956 398.33143,311.76625 402.9792,311.1893 C 407.62696,310.61237 417.6104,307.46245 420.93371,306.86113 C 428.5083,312.31338 436.17808,310.63103 443.31709,315.86491 C 445.66316,318.29889 446.28976,321.64706 446.44305,323.37113 C 449.28047,318.3131 450.22504,312.93909 450.50865,311.64515 C 451.04436,309.20133 436.96089,297.60934 422.71633,298.32881 z "
         style="fill:url(#radialGradient5943);fill-opacity:1;fill-rule:evenodd;stroke:none;stroke-width:1px;stroke-linecap:butt;stroke-linejoin:miter;stroke-opacity:1;display:inline" />
      <path
         id="path5712"
         d="M 416.60666,327.30117 C 411.95892,327.87813 402.11081,323.05982 402.11081,323.05982 C 402.11081,323.05982 404.18276,318.46081 412.12947,318.60699 C 420.07615,318.75317 419.24338,328.01213 416.60666,327.30117 z "
         style="fill:#000000;fill-rule:evenodd;stroke:#000000;stroke-width:2.67773533px;stroke-linecap:butt;stroke-linejoin:miter;stroke-opacity:1;display:inline" />
      <path
         sodipodi:nodetypes="cssc"
         id="path5714"
         d="M 426.55223,326.82168 C 425.30087,322.82396 424.06169,318.16404 431.35836,317.63581 C 438.65502,317.10759 442.37019,318.87302 438.33592,322.11106 C 434.30166,325.34907 427.20227,327.49608 426.55223,326.82168 z "
         style="fill:#000000;fill-opacity:1;fill-rule:evenodd;stroke:#000000;stroke-width:2.67773533px;stroke-linecap:butt;stroke-linejoin:miter;stroke-opacity:1;display:inline" />
      <path
         sodipodi:nodetypes="csscscssscssssssscsc"
         id="path5725"
         d="M 413.90278,354.32495 C 398.2629,354.59742 389.23888,362.02976 389.2073,363.74648 C 389.17361,365.57772 387.82184,367.62111 396.64383,373.50802 C 405.46583,379.39483 411.80594,382.71058 418.93987,380.78102 C 421.65721,382.43388 429.19932,381.41114 435.19706,379.65729 C 435.33183,379.61788 435.48147,379.53855 435.61846,379.49766 C 436.40083,377.41637 438.18542,375.22038 441.09153,373.15394 C 446.42788,369.3595 444.34891,369.32449 437.47337,369.65596 C 430.59785,369.98748 425.9719,369.87225 423.87807,371.66559 C 421.78425,373.45898 419.0885,373.64772 418.40599,373.40618 C 413.1328,373.76712 407.48136,369.99806 402.92431,368.76934 C 398.3673,367.5405 398.12243,367.12562 398.3766,365.75641 C 398.6308,364.38718 405.30822,364.24155 409.1617,366.37327 C 413.01515,368.50492 417.05206,370.42991 419.80311,370.25153 C 422.55416,370.07308 426.03245,366.9126 429.24132,366.74264 C 432.45018,366.57261 441.14052,367.39741 442.29769,366.73174 C 443.45483,366.06605 437.55935,363.27003 435.52026,362.08763 C 434.26367,361.35891 431.0278,356.57501 431.80556,354.73799 C 427.31643,353.65974 422.77678,354.63404 417.16571,354.38497 C 416.06465,354.33608 414.94543,354.30679 413.90278,354.32495 z "
         style="fill:url(#radialGradient5945);fill-opacity:1;fill-rule:evenodd;stroke:none;stroke-width:1px;stroke-linecap:butt;stroke-linejoin:miter;stroke-opacity:1;display:inline" />
      <path
         style="fill:url(#radialGradient5947);fill-rule:evenodd;stroke:none;stroke-width:1px;stroke-linecap:butt;stroke-linejoin:miter;stroke-opacity:1;display:inline"
         d="M 465.12402,113.14221 C 448.07295,113.1584 431.4707,118.39856 435.35742,134.35493 C 489.8607,146.30216 486.82667,177.83215 485.36504,191.18201 C 483.9034,204.53187 458.22942,212.55017 458.90837,241.7483 C 459.58734,270.94643 496.30631,258.24423 497.43248,263.12923 C 498.55868,268.01423 458.11006,286.73556 463.96475,299.0039 C 464.67557,300.49338 465.5975,302.48668 466.62104,304.74391 C 463.01452,302.77097 458.55564,301.85011 454.10458,298.15297 C 446.27485,291.64942 442.80704,266.18157 436.63974,255.73392 C 430.26775,256.41165 424.26526,277.72642 414.77306,275.16701 C 405.28089,272.60758 401.59481,259.02282 398.41613,258.96438 C 395.23744,258.9059 394.61751,292.33139 370.64587,299.04483 C 354.49842,310.51229 371.9597,346.52807 391.12839,350.30719 L 455.62437,347.47633 C 455.62437,347.47633 469.69179,330.63064 472.63582,318.99874 C 479.5452,336.16694 486.80142,358.15165 483.35569,368.65872 C 478.20237,384.37279 446.21255,402.00857 444.72856,416.57402 C 443.24456,431.13953 462.13119,463.14646 475.23507,477.98029 C 488.33894,492.81415 543.81096,519.3794 544.71356,536.42096 C 545.61616,553.46251 505.66856,541.76294 499.52322,545.2981 C 493.37784,548.83325 470.68756,592.20166 459.56779,601.72569 C 448.44796,611.24968 428.07244,593.84989 409.7034,600.80841 C 391.33436,607.76691 401.70914,639.61309 380.97589,642.87989 C 360.24262,646.14673 360.12954,653.43516 350.18069,665.41278 C 344.02007,672.82966 330.65782,690.45308 319.57044,705.18991 C 326.78708,697.48866 336.72871,687.15829 348.45827,681.70131 C 368.75208,672.25992 413.13866,659.35759 431.14206,641.04084 C 449.14549,622.72403 480.92702,603.68193 486.96726,595.45054 C 493.00751,587.2191 497.72568,570.63926 501.70437,567.76805 C 505.68309,564.89676 548.51359,557.33051 548.51359,557.33051 C 548.51361,557.33051 557.00428,549.0868 562.98136,544.2894 C 568.95838,539.49203 578.89046,534.78993 578.89046,534.78993 C 578.89046,534.78993 580.85453,532.52946 577.62877,530.58205 C 580.33682,530.30119 583.74203,528.68337 587.87383,524.15874 C 598.89199,512.09299 584.2013,511.84511 596.61894,503.73103 C 609.03658,495.61701 607.19909,488.1913 607.19909,488.1913 C 607.19912,488.19127 635.3642,479.40803 655.48658,479.28744 C 675.60895,479.16682 686.28755,483.75337 697.10715,482.48017 C 707.92678,481.20703 710.95888,475.44222 725.19442,475.21336 C 739.42999,474.98443 751.64937,479.55363 759.07108,476.255 C 762.63432,474.67127 767.17616,468.68853 771.71207,462.42705 C 774.00701,453.32333 775.27966,444.93707 773.88766,439.70247 C 769.33809,422.59383 692.77216,351.84461 653.0804,328.00923 C 613.38865,304.17379 573.74503,280.32178 570.2099,274.17643 C 566.67474,268.03105 568.16378,253.4665 568.16376,253.46652 L 583.11757,236.75185 C 583.42617,236.1612 583.78358,235.60016 584.07021,235.01181 L 579.62044,222.12487 L 586.73547,212.96578 C 586.59655,212.24084 586.50871,211.60873 586.35408,210.95013 L 583.67932,206.21409 L 582.38224,203.93051 C 582.38224,203.93051 583.10093,202.42231 583.33949,201.93948 C 585.88366,196.78441 600.19186,167.16763 601.65085,148.29409 C 601.89437,145.14377 601.55756,142.4475 600.71403,140.07491 C 600.68453,140.01866 600.66268,139.96191 600.63344,139.90604 C 600.08316,138.85471 599.49515,137.70347 599.01708,136.77965 C 598.91374,136.57994 598.7924,136.46557 598.69166,136.2715 C 598.62245,136.17261 598.60178,136.03095 598.53048,135.93376 C 592.73791,128.03678 580.04814,125.75416 568.59112,125.59089 C 566.29973,125.55825 564.10716,125.60747 561.97697,125.7203 C 551.15803,126.29333 542.71877,133.71535 537.96214,139.08795 C 537.67037,139.41752 537.4556,139.68264 537.19223,139.99441 C 534.9582,142.63191 533.6758,144.61653 533.67577,144.61656 C 533.67577,144.61656 531.91526,143.15512 530.1305,141.70577 C 522.63343,135.62712 502.38715,120.01566 486.75172,115.79978 C 480.70138,114.1684 472.87451,113.13486 465.12402,113.14221 z M 570.65015,527.77549 C 570.65015,527.77549 570.69129,527.82196 576.05145,529.88349 C 576.65321,530.11492 577.12698,530.33326 577.54511,530.58051 C 573.08558,530.9993 570.65016,527.77546 570.65015,527.77549 z "
         id="path5811" />
      <path
         transform="matrix(2.477525,4.5574919e-2,-3.430349e-2,1.8647922,-136.07963,-677.50311)"
         d="M 260.20607 485.85172 A 5.6332831 5.6332831 0 1 1  248.9395,485.85172 A 5.6332831 5.6332831 0 1 1  260.20607 485.85172 z"
         sodipodi:ry="5.6332831"
         sodipodi:rx="5.6332831"
         sodipodi:cy="485.85172"
         sodipodi:cx="254.57278"
         id="path5750"
         style="fill:#1a1a1a;fill-opacity:1;stroke:#1a1a1a;stroke-width:0.1;stroke-opacity:1"
         sodipodi:type="arc" />
      <path
         sodipodi:type="arc"
         style="fill:#1a1a1a;fill-opacity:1;stroke:#1a1a1a;stroke-width:0.1;stroke-opacity:1"
         id="path5752"
         sodipodi:cx="254.57278"
         sodipodi:cy="485.85172"
         sodipodi:rx="5.6332831"
         sodipodi:ry="5.6332831"
         d="M 260.20607 485.85172 A 5.6332831 5.6332831 0 1 1  248.9395,485.85172 A 5.6332831 5.6332831 0 1 1  260.20607 485.85172 z"
         transform="matrix(2.3813098,0.6852525,-0.5157785,1.7923726,5.532438,-807.31115)" />
      <path
         id="path5815"
         d="M 811.36191,440.81029 C 800.16586,440.87271 789.49085,443.6735 785.1476,446.35399 C 778.1984,450.64278 766.49278,472.95632 759.07108,476.255 C 751.64937,479.55363 739.42999,474.98443 725.19442,475.21336 C 710.95888,475.44222 707.92678,481.20703 697.10715,482.48017 C 686.28755,483.75337 675.60895,479.16682 655.48658,479.28744 C 635.3642,479.40803 607.19912,488.19127 607.19909,488.1913 C 607.19909,488.1913 609.03658,495.61701 596.61894,503.73103 C 584.2013,511.84511 598.89199,512.09299 587.87383,524.15874 C 583.74203,528.68337 580.33682,530.30119 577.62877,530.58205 C 580.85453,532.52946 578.89046,534.78993 578.89046,534.78993 C 578.89046,534.78993 568.95838,539.49203 562.98136,544.2894 C 557.00428,549.0868 548.51361,557.33051 548.51359,557.33051 C 548.51359,557.33051 513.9353,563.40482 504.067,566.72349 L 500.16762,569.41365 C 500.15543,569.43104 500.17826,569.47973 500.16608,569.49731 C 496.5223,574.7486 492.23485,588.27206 486.96726,595.45054 C 480.92702,603.68193 449.14549,622.72403 431.14206,641.04084 C 413.13866,659.35759 368.75208,672.25992 348.45827,681.70131 C 328.16444,691.1427 313.00217,715.43568 308.59604,714.86385 C 304.18995,714.29205 313.67695,707.09006 313.67695,707.09014 C 313.67695,707.09014 295.81976,715.56458 290.47765,712.52191 C 287.22593,710.66985 290.73713,706.63323 293.98739,703.71498 C 288.70249,707.66367 279.62189,713.03866 275.34911,706.88724 C 273.1684,703.74771 275.98622,697.17633 280.43044,689.99096 C 274.33461,696.15872 268.37735,700.17877 264.71945,697.82021 C 258.68259,693.92774 267.86376,678.6629 276.33731,666.81629 C 268.58217,676.10444 258.99897,685.74661 254.70875,682.40386 C 246.96792,676.37264 263.90533,663.92401 278.09247,639.64822 C 278.71302,638.58641 279.10024,637.86812 279.64923,636.91498 L 277.24911,635.44804 C 275.63122,638.14411 273.91132,641.00026 272.5896,643.06212 C 268.54774,649.36732 260.11089,654.06256 257.71218,651.07409 C 255.31348,648.08556 270.12455,619.90575 279.16237,608.78505 C 288.20017,597.66437 318.10836,571.68663 337.20121,547.50112 C 356.29405,523.31558 375.52977,515.81682 375.52977,515.81684 C 375.52977,515.81684 375.91556,513.66961 375.78483,511.05101 C 374.19954,507.84916 371.52632,503.74821 367.75495,501.69703 C 362.01555,501.4795 360.91702,506.23547 351.6164,510.02057 C 349.47622,510.89155 344.86556,512.24294 339.32896,513.72813 C 327.5232,520.5509 313.4871,527.87615 299.78685,529.48834 C 288.15475,530.85712 279.42847,529.83151 271.63173,526.79439 C 270.77801,526.78982 269.96799,526.75773 269.37432,526.66917 C 258.1183,524.98991 231.0497,500.42232 217.94872,492.32951 C 204.84776,484.23674 180.93477,479.84781 180.93477,479.84786 C 180.93477,479.84786 181.65355,479.31141 181.69852,479.27606 C 176.33623,478.91503 171.88981,478.94007 168.97836,479.20945 C 157.33254,480.28699 130.05754,488.87886 111.765,500.16835 C 93.472457,511.45785 76.253322,534.39369 60.305901,558.64405 C 44.358493,582.89444 -0.7584726,647.90969 -0.7584738,647.90961 L 37.02336,768.78832 L 1005.7919,772.38127 C 1005.7919,772.38127 1021.6368,755.89025 1025.7009,745.63085 C 1028.2056,739.30766 1030.7569,672.32966 1032.4437,620.2148 C 1032.2679,620.44099 1030.2145,623.10307 1030.2145,623.10307 C 1030.2145,623.10307 1031.8602,609.32334 1033.1179,597.21153 C 1033.3801,588.50688 1033.5438,584.6048 1033.7106,578.6425 C 1031.1894,569.56457 1021.9629,562.10621 1021.9629,562.10618 C 1021.9629,562.10618 1034.178,541.21707 1017.7152,529.13655 C 1001.2524,517.05605 998.72677,519.49728 998.72672,519.49728 L 936.21617,528.1395 C 936.21617,528.1395 927.17739,515.71206 917.46527,510.13527 C 907.75315,504.55851 892.49559,507.16512 892.49559,507.16514 C 892.49559,507.16514 887.7065,499.27444 884.35378,494.79614 C 881.00101,490.31783 846.37983,450.93074 830.79893,444.26449 C 824.95609,441.76467 818.07955,440.77285 811.36191,440.81029 z M 276.33731,666.81629 C 282.5747,659.34592 287.65505,652.12706 287.65505,652.12706 C 287.65505,652.12703 282.15928,658.67676 276.33731,666.81629 z M 280.43044,689.99096 C 291.30715,678.9859 302.71895,661.27566 302.71895,661.27566 C 302.71895,661.27564 288.6522,676.69812 280.43044,689.99096 z M 570.65015,527.77549 C 570.65016,527.77546 573.08558,530.9993 577.54511,530.58051 C 577.12698,530.33326 576.65321,530.11492 576.05145,529.88349 C 570.69129,527.82196 570.65015,527.77549 570.65015,527.77549 z M 298.06488,700.44225 C 298.06488,700.44225 296.2335,701.71096 294.24301,703.4686 C 296.48974,701.76804 298.06488,700.44225 298.06488,700.44225 z "
         style="fill:#433903;fill-opacity:1;fill-rule:evenodd;stroke:#433903;stroke-width:2.67773533px;stroke-linecap:butt;stroke-linejoin:miter;stroke-opacity:1" />
      <path
         id="path5884"
         d="M 291,166.56298 C 291,166.56298 276.00573,161.00954 269.3416,156.56679 C 262.67748,152.12405 259.34542,148.79199 254.90267,149.90267 C 250.45992,151.01336 248.23855,171.00573 260.45611,181.55725 C 272.67366,192.10878 279.89313,194.8855 279.89313,194.8855 C 279.89313,194.8855 279.89313,182.66794 282.1145,178.22519 C 284.33588,173.78244 289.33397,168.78435 291,166.56298 z "
         style="fill:#4d4d4d;fill-rule:evenodd;stroke:none;stroke-width:1px;stroke-linecap:butt;stroke-linejoin:miter;stroke-opacity:1" />
      <path
         id="path5886"
         d="M 548.67939,159.89886 C 548.67939,159.89886 558.67557,141.57252 563.67366,139.35115 C 568.67176,137.12977 586.99809,139.35115 590.33015,142.12786 C 593.66221,144.90458 589.21947,171.56107 581.44466,178.78053 C 573.66985,186 567.56107,184.88931 567.56107,184.88931 C 567.56107,184.88931 564.22901,176.55916 560.3416,172.67176 C 556.4542,168.78435 548.12405,159.89886 548.67939,159.89886 z "
         style="fill:#4d4d4d;fill-opacity:1;fill-rule:evenodd;stroke:none;stroke-width:1px;stroke-linecap:butt;stroke-linejoin:miter;stroke-opacity:1" />
      <path
         transform="matrix(0.927982,0.2670388,-0.2009957,0.6984768,222.57241,-174.37222)"
         d="M 260.20607 485.85172 A 5.6332831 5.6332831 0 1 1  248.9395,485.85172 A 5.6332831 5.6332831 0 1 1  260.20607 485.85172 z"
         sodipodi:ry="5.6332831"
         sodipodi:rx="5.6332831"
         sodipodi:cy="485.85172"
         sodipodi:cx="254.57278"
         id="path5888"
         style="fill:url(#radialGradient5949);fill-opacity:1;stroke:#1a1a1a;stroke-width:0.1;stroke-opacity:1"
         sodipodi:type="arc" />
      <path
         sodipodi:type="arc"
         style="fill:url(#radialGradient5951);fill-opacity:1;stroke:#1a1a1a;stroke-width:0.1;stroke-opacity:1"
         id="path5894"
         sodipodi:cx="254.57278"
         sodipodi:cy="485.85172"
         sodipodi:rx="5.6332831"
         sodipodi:ry="5.6332831"
         d="M 260.20607 485.85172 A 5.6332831 5.6332831 0 1 1  248.9395,485.85172 A 5.6332831 5.6332831 0 1 1  260.20607 485.85172 z"
         transform="matrix(1.0518241,1.9348664e-2,-1.456342e-2,0.7916907,217.27427,-154.17987)" />
    </g>
  </g>
</svg>
